<?xml version="1.0" encoding="UTF-8"?>
<svg id="Calque_2" data-name="Calque 2" xmlns="http://www.w3.org/2000/svg" xmlns:xlink="http://www.w3.org/1999/xlink" viewBox="0 0 377.1 505.14">
  <defs>
    <style>
      .cls-1 {
        filter: url(#drop-shadow-3);
      }

      .cls-1, .cls-2, .cls-3 {
        fill: #36206d;
      }

      .cls-4 {
        fill: url(#Dégradé_sans_nom_26-5);
      }

      .cls-2 {
        filter: url(#drop-shadow-2);
      }

      .cls-5 {
        fill: url(#Dégradé_sans_nom_26-4);
      }

      .cls-6 {
        fill: url(#Dégradé_sans_nom_26);
      }

      .cls-7 {
        clip-path: url(#clippath);
      }

      .cls-3 {
        filter: url(#drop-shadow-1);
      }

      .cls-8 {
        fill: url(#Dégradé_sans_nom_26-3);
      }

      .cls-9 {
        fill: url(#Dégradé_sans_nom_26-2);
      }
    </style>
    <linearGradient id="Dégradé_sans_nom_26" data-name="Dégradé sans nom 26" x1="191.53" y1="368.26" x2="357.59" y2="412.76" gradientUnits="userSpaceOnUse">
      <stop offset="0" stop-color="#e7297d"/>
      <stop offset="1" stop-color="#882a86"/>
    </linearGradient>
    <linearGradient id="Dégradé_sans_nom_26-2" data-name="Dégradé sans nom 26" x1="117.68" y1="362.43" x2="6.59" y2="378.62" xlink:href="#Dégradé_sans_nom_26"/>
    <linearGradient id="Dégradé_sans_nom_26-3" data-name="Dégradé sans nom 26" x1="41.57" y1="110.56" x2="242.06" y2="164.28" xlink:href="#Dégradé_sans_nom_26"/>
    <linearGradient id="Dégradé_sans_nom_26-4" data-name="Dégradé sans nom 26" x1="80.14" y1="229.43" x2="332.38" y2="229.43" gradientTransform="translate(4.87 1.48)" xlink:href="#Dégradé_sans_nom_26"/>
    <linearGradient id="Dégradé_sans_nom_26-5" data-name="Dégradé sans nom 26" x1="80.14" y1="229.43" x2="332.38" y2="229.43" gradientTransform="translate(4.87 1.48)" xlink:href="#Dégradé_sans_nom_26"/>
    <clipPath id="clippath">
      <rect class="cls-4" x="85.01" y="38.41" width="252.24" height="385" rx="25.27" ry="25.27" transform="translate(66.96 -46.78) rotate(15)"/>
    </clipPath>
    <filter id="drop-shadow-1" filterUnits="userSpaceOnUse">
      <feOffset dx="0" dy="0"/>
      <feGaussianBlur result="blur" stdDeviation="2"/>
      <feFlood flood-color="#000" flood-opacity=".5"/>
      <feComposite in2="blur" operator="in"/>
      <feComposite in="SourceGraphic"/>
    </filter>
    <filter id="drop-shadow-2" filterUnits="userSpaceOnUse">
      <feOffset dx="0" dy="0"/>
      <feGaussianBlur result="blur-2" stdDeviation="2"/>
      <feFlood flood-color="#000" flood-opacity=".5"/>
      <feComposite in2="blur-2" operator="in"/>
      <feComposite in="SourceGraphic"/>
    </filter>
    <filter id="drop-shadow-3" filterUnits="userSpaceOnUse">
      <feOffset dx="0" dy="0"/>
      <feGaussianBlur result="blur-3" stdDeviation="2"/>
      <feFlood flood-color="#000" flood-opacity=".5"/>
      <feComposite in2="blur-3" operator="in"/>
      <feComposite in="SourceGraphic"/>
    </filter>
  </defs>
  <g id="workspace_2" data-name="workspace 2">
    <g id="Original">
      <path class="cls-6" d="M275.62,279.88h0c3.61,0,7.19,.94,10.36,2.71l74.56,41.7c10.23,5.72,13.9,18.71,8.18,28.94l-76.63,137.02c-3.76,6.72-10.88,10.89-18.58,10.89-3.61,0-7.19-.94-10.36-2.71l-74.56-41.7c-10.23-5.72-13.9-18.71-8.18-28.94l76.63-137.02c3.76-6.72,10.88-10.89,18.59-10.89m0-4c-8.85,0-17.45,4.66-22.08,12.94l-76.63,137.02c-6.81,12.18-2.46,27.57,9.72,34.39l74.56,41.7c3.9,2.18,8.14,3.22,12.31,3.22,8.85,0,17.45-4.66,22.08-12.94l76.63-137.02c6.81-12.18,2.46-27.57-9.72-34.39l-74.56-41.7c-3.9-2.18-8.13-3.22-12.31-3.22h0Z"/>
      <path class="cls-9" d="M69.08,292.06v4s0,0,0,0c9.24,0,17.36,5.91,20.22,14.7l29.93,92.14c3.62,11.15-2.5,23.17-13.66,26.8l-43.8,14.23c-2.14,.69-4.35,1.05-6.58,1.05-9.24,0-17.36-5.91-20.22-14.7L5.05,338.14c-3.62-11.15,2.5-23.17,13.66-26.8l43.8-14.23c2.14-.69,4.35-1.05,6.58-1.05v-4m0,0c-2.59,0-5.22,.4-7.81,1.24l-43.8,14.23c-13.27,4.31-20.54,18.57-16.22,31.84l29.93,92.14c3.47,10.68,13.37,17.47,24.03,17.47,2.59,0,5.22-.4,7.81-1.24l43.8-14.23c13.27-4.31,20.54-18.57,16.22-31.84l-29.93-92.14c-3.47-10.68-13.37-17.47-24.03-17.47h0Z"/>
      <path class="cls-8" d="M90.56,4h0c.66,0,1.33,.03,1.99,.09l122.19,11.33c5.66,.52,10.77,3.22,14.4,7.59,3.63,4.37,5.34,9.89,4.81,15.55l-19.74,212.98c-1.02,11.01-10.11,19.31-21.15,19.31-.66,0-1.33-.03-1.99-.09l-122.19-11.33c-5.66-.52-10.77-3.22-14.4-7.59-3.63-4.37-5.34-9.89-4.81-15.55L69.42,23.31c1.02-11.01,10.11-19.31,21.15-19.31m0-4c-12.9,0-23.92,9.83-25.13,22.94l-19.74,212.98c-1.29,13.89,8.93,26.2,22.83,27.49l122.19,11.33c.79,.07,1.58,.11,2.36,.11,12.9,0,23.92-9.83,25.13-22.94l19.74-212.98c1.29-13.89-8.93-26.2-22.83-27.49L92.92,.11c-.79-.07-1.58-.11-2.36-.11h0Z"/>
      <g>
        <rect class="cls-5" x="85.01" y="38.41" width="252.24" height="385" rx="25.27" ry="25.27" transform="translate(66.96 -46.78) rotate(15)"/>
        <g class="cls-7">
          <rect class="cls-3" x="206.58" y="286.74" width="135.97" height="207.53" rx="25.27" ry="25.27" transform="translate(225.53 -84.34) rotate(29.22)"/>
          <rect class="cls-2" x="13.85" y="296.81" width="96.58" height="147.42" rx="25.27" ry="25.27" transform="translate(235.71 703.72) rotate(162)"/>
          <rect class="cls-1" x="55.19" y="5.21" width="173.25" height="264.43" rx="25.27" ry="25.27" transform="translate(13.29 -12.5) rotate(5.3)"/>
        </g>
      </g>
    </g>
  </g>
</svg>