<?xml version="1.0" encoding="UTF-8"?>
<svg id="Calque_2" data-name="Calque 2" xmlns="http://www.w3.org/2000/svg" viewBox="0 0 297.13 243.56">
  <defs>
    <style>
      .cls-1 {
        fill: #ff85e5;
      }
    </style>
  </defs>
  <g id="Calque_2-2" data-name="Calque 2">
    <g>
      <g>
        <path class="cls-1" d="M245.34,129.79c27.07-54.26,29.28-115.02,6.64-127.16-15.09-8.09-43.73,4.08-75.91,26.46,9.88,4.53,18.39,11.39,25.5,20.63,11.69,15.18,16.3,32.41,13.83,51.69-1.42,11.04-5.2,21-11.36,29.85l-29.4,42.75,33.13,4.25-.56,4.37c4.78-4.65,9.37-9.6,13.7-14.86,3.77-4.58,7.32-9.36,10.63-14.26,16.2,15.78,25.51,29.63,23.03,37.95-4.38,14.71-25.81,22.29-51.6,24.27l-1.87,14.61c49.02,.43,90.89-15.34,94.43-36.68,2.82-17.02-18.25-40.44-50.19-63.86Z"/>
        <path class="cls-1" d="M244.28,130.04c.81-2.03,2.12-4.85,3.09-6.85,6.82-14.36,12.04-29.48,15.57-44.98,3.78-17.66,5.94-36.24,2.16-54.08-1.96-8.61-5.89-18.01-14.36-21.92-15.62-6.46-37.66,4.89-51.51,12.33-7.96,4.45-15.64,9.37-23.14,14.56,6.42,2.84,12.55,7.12,17.75,11.98,10.49,9.9,18.63,22.57,22.1,36.67,3.5,14.37,2.71,29.92-2.74,43.73-2,5.19-4.99,10.13-8.09,14.69-4.89,7.45-10.03,14.96-15.05,22.31,0,0-12.14,17.78-12.14,17.78,0,0-2.77-6.2-2.77-6.2,2.5,.33,35.54,4.58,37.05,4.78,0,0-.51,3.92-.51,3.92l-.57,4.37-6.67-3.33c10.06-9.56,18.86-20.42,26.54-32,0,0,3.1,3.08,3.1,3.08,8.92,9.06,27.95,28.38,23.39,42.02-7.12,19.75-36.17,23.98-54.32,25.4,0,0,2.36-2.25,2.36-2.25l-2.01,14.59-2.4-2.75c15.77,.24,31.64-1.04,47.01-4.55,18.64-4.34,54.02-16.36,44.61-41.42-2.7-7.37-7.39-13.8-12.45-19.75-9.06-10.5-19.69-19.66-30.79-27.98-1.63-1.18-3.8-2.8-5.23-4.15h0Zm2.12-.51c1.16,.62,2.17,1.3,3.17,2.1,11.47,8.88,22.78,18.15,32.48,29.01,21.97,24.66,21.04,43.72-10.05,58.64-22.16,10.09-46.79,13.27-70.92,13.49,0,0-2.73,0-2.73,0,0,0,.33-2.76,.33-2.76,.15-1.47,1.89-15.82,1.97-16.68,0,0,2.12-.19,2.12-.19,15.15-1.52,36.26-4.75,46.07-17.28,1.49-2.18,2.83-4.63,2.82-7.25-.5-10.41-15.19-25.13-22.69-32.49,0,0,5.6-.57,5.6-.57-7.13,10.75-15.39,20.83-24.61,29.89l-8.1,7.97s1.43-11.3,1.43-11.3l.55-4.37,3.42,4.42-33.13-4.22s-6.5-.83-6.5-.83c0,0,3.72-5.38,3.72-5.38,7.35-10.46,17.27-25.13,24.58-35.37,3.61-4.94,8.83-11.98,11.35-17.49,12.58-26.72,8.07-57.09-13.5-77.76-5.12-5.02-11.4-9.05-17.74-12.07,7.48-5.21,15.15-10.17,23.1-14.64,13.94-7.56,35.94-18.96,51.71-12.51,16.3,7.91,17.44,33.52,16.81,49.38-.95,18.28-4.99,36.31-10.89,53.61-3.04,8.34-6.06,16.88-10.39,24.64h0Z"/>
      </g>
      <g>
        <path class="cls-1" d="M72.26,219.22l78.95-111.28,2.7-3.79c2.15-2.97,3.43-6.01,3.83-9.11,1-7.85-3.09-12.36-12.29-13.54-3.59-.46-6.88,.47-9.88,2.79-3.01,2.32-4.74,5.28-5.2,8.86-.52,4.07,.75,7.97,3.81,11.71l-31.24,42.07c-9.81-7.95-16.92-17.38-21.33-28.28-.45-1.11-.86-2.24-1.25-3.37-9.53,10.61-18.4,21.26-26.25,31.6C28.02,112.37,12.04,74.2,22.17,62.63c10.5-12,33.71-10.28,61.58-.75,1.82-3.77,3.99-7.35,6.52-10.72-38.99-12.43-71.02-15.76-81.72-2.93-13.6,16.31,1,66.18,37.71,109.37-21.3,30.21-32.48,56.57-24.36,69.88,10.98,18,62.24,20.33,114.57-.04l-64.2-8.23Z"/>
        <path class="cls-1" d="M71.27,219.66c24.65-34.92,57.9-81.41,82.66-115.99,5.62-7.87,5.78-18.92-5.39-21.41-3.58-.94-7.52-1.08-10.82,.83-5.82,2.91-8.86,10.05-6.6,16.21,.68,2.02,1.81,3.86,3.16,5.51l.06,.07-.05,.07c-.07,0-31.28,42.17-31.36,42.04-10.25-8.24-18.31-19.21-22.57-31.68-9.18,10.39-18.15,21.33-26.2,32.72-15.36-19.49-34.46-46.25-38.23-71.2-.55-4.38-.54-9.87,1.86-14.22,3.39-5.96,10.2-9.54,16.56-11.06,17.14-3.63,34.57,1.37,50.73,6.56,0,0-4.89,2.04-4.89,2.04,1.94-4,4.27-7.82,6.93-11.37,0,0,1.98,6.17,1.98,6.17-8.12-2.59-16.31-4.92-24.57-6.82-14.51-3.12-34.54-7.3-48.32-1.2-5.67,2.5-8.13,8.28-8.81,14.09-1.61,18.01,5.38,36.15,13.03,52.31,7.75,15.88,17.76,30.65,29.16,44.15-11.35,16.16-24.79,35.72-27.92,55.4-1.17,8.01,.86,15.11,7.98,19.41,16.3,9.81,40.63,8.58,59.04,6.32,16.18-2.24,32.09-6.47,47.39-12.27,0,0,.28,2.29,.28,2.29l-65.05-8.97h0Zm2-.88s63.35,7.49,63.35,7.49c0,0,4.67,.55,4.67,.55,0,0-4.39,1.73-4.39,1.73-29.82,11.45-65.89,19.69-97.56,12.04-22.44-6.14-25.96-20.03-19.03-40.67,5.52-15.87,14.42-30.09,23.82-43.83,0,0,.14,3.19,.14,3.19-11.35-13.22-21.33-27.65-29.33-43.23-9.71-18.56-27.03-63.07-2.05-75.68,21.59-9.96,56.94,.47,78.59,6.99,0,0,5.34,1.67,5.34,1.67,0,0-3.36,4.51-3.36,4.51-3.08,4.03-5.52,8.67-7.64,13.27-7.19-2.51-14.58-4.88-21.96-6.48-11.5-2.38-25.48-4.38-35.59,1.94-2.08,1.4-4.03,3.07-4.83,5.51-2.42,8.51,.92,18.46,3.56,26.79,6.59,18.5,16.32,35.81,27.65,51.91,0,0-1.09,0-1.09,0,6.22-7.7,13.37-16.06,19.94-23.53,.02-.02,6.84-7.67,6.86-7.68,2.13,6.22,5.16,12.13,9.04,17.45,3.76,5.31,8.72,10.17,13.5,14.2,0,0,31.18-42.12,31.18-42.12-6.15-6.52-5.19-17.44,3.48-21.99,3.84-2.24,8.54-1.74,12.6-.44,7.31,2.2,9.31,8.96,7.11,15.81-1.05,4.2-7.94,12.62-10.31,16.3-21.07,30.02-52.37,74.29-73.71,104.3h0Z"/>
      </g>
    </g>
  </g>
</svg>